<svg class="typst-doc" viewBox="0 0 152.61522222222223 131.51399999999998" width="152.61522222222223pt" height="131.51399999999998pt" xmlns="http://www.w3.org/2000/svg" xmlns:xlink="http://www.w3.org/1999/xlink" xmlns:h5="http://www.w3.org/1999/xhtml">
    <g>
        <g class="typst-group">
            <g>
                <path class="typst-shape" fill="none" stroke="#000000" stroke-width="0.7" stroke-linecap="butt" stroke-linejoin="miter" stroke-miterlimit="4" transform="matrix(1 0 0 1 42.4 45.488)" d="M 0 0v 20.619 "/>
                <path class="typst-shape" fill="none" stroke="#000000" stroke-width="0.7" stroke-linecap="butt" stroke-linejoin="miter" stroke-miterlimit="4" transform="matrix(1 0 0 1 42.4 65.40699999999998)" d="M 0 0v 20.619 "/>
                <path class="typst-shape" fill="none" stroke="#000000" stroke-width="0.7" stroke-linecap="butt" stroke-linejoin="miter" stroke-miterlimit="4" transform="matrix(1 0 0 1 42.4 85.32599999999998)" d="M 0 0v 20.619 "/>
                <path class="typst-shape" fill="none" stroke="#000000" stroke-width="0.7" stroke-linecap="butt" stroke-linejoin="miter" stroke-miterlimit="4" transform="matrix(1 0 0 1 42.050000000000004 65.75699999999999)" d="M 0 0h 46.415222 "/>
                <g class="typst-text" transform="matrix(1 0 0 -1 19.819000000000003 20.918999999999997)">
                    <use xlink:href="#g2B423CCE77CADA3AEEBCD71E4CC9E84E" x="0" y="0" fill="#000000" fill-rule="nonzero"/>
                </g>
                <g class="typst-group">
                    <g>
                        <g class="typst-text" transform="matrix(1 0 0 -1 42.4 20.262499999999996)">
                            <use xlink:href="#g1F90294F4741C45EFAF627C7603272BD" x="0" y="0" fill="#000000" fill-rule="nonzero"/>
                        </g>
                        <g class="typst-text" transform="matrix(1 0 0 -1 54.79911111111112 20.262499999999996)">
                            <use xlink:href="#gF1D632B2F65D4E52C4B01D17B01B5D80" x="0" y="0" fill="#000000" fill-rule="nonzero"/>
                        </g>
                        <g class="typst-text" transform="matrix(1 0 0 -1 72.45022222222222 20.262499999999996)">
                            <use xlink:href="#g4111B454E3DE943DB7281AAFE92A07DE" x="0" y="0" fill="#000000" fill-rule="nonzero"/>
                        </g>
                    </g>
                </g>
                <g class="typst-group">
                    <g>
                        <g class="typst-text" transform="matrix(1 0 0 -1 19.247000000000003 40.837999999999994)">
                            <use xlink:href="#g5547AE746F4F598D585CCB523E0B2696" x="0" y="0" fill="#000000" fill-rule="nonzero"/>
                        </g>
                        <g class="typst-group">
                            <g>
                                <g class="typst-text" transform="matrix(1 0 0 -1 42.4 40.18149999999999)">
                                    <use xlink:href="#g882F1245D7675D403DC4F1A7118DC1B4" x="0" y="0" fill="#000000" fill-rule="nonzero"/>
                                </g>
                                <g class="typst-text" transform="matrix(1 0 0 -1 51.812 40.18149999999999)">
                                    <use xlink:href="#g4111B454E3DE943DB7281AAFE92A07DE" x="0" y="0" fill="#000000" fill-rule="nonzero"/>
                                </g>
                            </g>
                        </g>
                    </g>
                </g>
                <g class="typst-group">
                    <g>
                        <g class="typst-text" transform="matrix(1 0 0 -1 19.403000000000002 60.75699999999999)">
                            <use xlink:href="#g90F5FA72EB5EBAE9521706E5BB56BAAB" x="0" y="0" fill="#000000" fill-rule="nonzero"/>
                        </g>
                        <g class="typst-text" transform="matrix(1 0 0 -1 54.10000000000001 60.10049999999999)">
                            <use xlink:href="#g1F90294F4741C45EFAF627C7603272BD" x="0" y="0" fill="#000000" fill-rule="nonzero"/>
                        </g>
                        <g class="typst-text" transform="matrix(1 0 0 -1 103.71522222222224 59.99399999999999)">
                            <use xlink:href="#g63E37FF68EBD104F5720C136CD539C2D" x="0" y="0" fill="#000000" fill-rule="nonzero"/>
                        </g>
                    </g>
                </g>
                <g class="typst-group">
                    <g>
                        <g class="typst-text" transform="matrix(1 0 0 -1 18.337000000000003 80.67599999999999)">
                            <use xlink:href="#gEBC2302B8473AB43125875C67C7A7242" x="0" y="0" fill="#000000" fill-rule="nonzero"/>
                        </g>
                        <g class="typst-text" transform="matrix(1 0 0 -1 54.10000000000001 80.0195)">
                            <use xlink:href="#g4111B454E3DE943DB7281AAFE92A07DE" x="0" y="0" fill="#000000" fill-rule="nonzero"/>
                        </g>
                        <g class="typst-group">
                            <g>
                                <g class="typst-text" transform="matrix(1 0 0 -1 103.71522222222224 79.913)">
                                    <use xlink:href="#g8C323423D8C0C3A99512B145063D8EFF" x="0" y="0" fill="#000000" fill-rule="nonzero"/>
                                </g>
                                <g class="typst-text" transform="matrix(1 0 0 -1 110.01822222222224 79.913)">
                                    <use xlink:href="#g7C65E43B8D770AF3084944E7D6AB087E" x="0" y="0" fill="#000000" fill-rule="nonzero"/>
                                </g>
                                <g class="typst-text" transform="matrix(1 0 0 -1 121.89822222222223 79.913)">
                                    <use xlink:href="#g31E5BA2D5AA159486808759D274DA451" x="3.927" y="0" fill="#000000" fill-rule="nonzero"/>
                                    <use xlink:href="#gDAC5E2DCB52C210DE30153CB713FDB31" x="9.834000000000001" y="0" fill="#000000" fill-rule="nonzero"/>
                                    <use xlink:href="#g6E8960DBA89EBA7DA42E3EA0EB30319C" x="12.606000000000002" y="0" fill="#000000" fill-rule="nonzero"/>
                                </g>
                            </g>
                        </g>
                    </g>
                </g>
                <g class="typst-group">
                    <g>
                        <g class="typst-text" transform="matrix(1 0 0 -1 18.987000000000002 100.59499999999998)">
                            <use xlink:href="#g86EA722F1BDD396568727E75E2996077" x="0" y="0" fill="#000000" fill-rule="nonzero"/>
                        </g>
                        <g class="typst-group">
                            <g>
                                <g class="typst-text" transform="matrix(1 0 0 -1 54.10000000000001 99.93849999999999)">
                                    <use xlink:href="#g882F1245D7675D403DC4F1A7118DC1B4" x="0" y="0" fill="#000000" fill-rule="nonzero"/>
                                </g>
                                <g class="typst-text" transform="matrix(1 0 0 -1 63.512 99.93849999999999)">
                                    <use xlink:href="#g4111B454E3DE943DB7281AAFE92A07DE" x="0" y="0" fill="#000000" fill-rule="nonzero"/>
                                </g>
                            </g>
                        </g>
                        <g class="typst-text" transform="matrix(1 0 0 -1 103.71522222222224 99.832)">
                            <use xlink:href="#g25BB32D7ACCE9FD835E1EB48ACE4FEF2" x="0" y="0" fill="#000000" fill-rule="nonzero"/>
                            <use xlink:href="#g535A670AE28F841DC8B7E1673460922C" x="5.433999999999999" y="0" fill="#000000" fill-rule="nonzero"/>
                            <use xlink:href="#g65ED4F00B31BDC51AA0C660AFAA748AB" x="15.410999999999998" y="0" fill="#000000" fill-rule="nonzero"/>
                        </g>
                    </g>
                </g>
                <g class="typst-text" transform="matrix(1 0 0 -1 18.441000000000003 120.51399999999998)">
                    <use xlink:href="#g6BAA4BB3C41B36A10C2DB7913EA69BB6" x="0" y="0" fill="#000000" fill-rule="nonzero"/>
                </g>
                <g class="typst-group">
                    <g>
                        <g class="typst-text" transform="matrix(1 0 0 -1 42.4 119.85749999999999)">
                            <use xlink:href="#g882F1245D7675D403DC4F1A7118DC1B4" x="0" y="0" fill="#000000" fill-rule="nonzero"/>
                        </g>
                        <g class="typst-text" transform="matrix(1 0 0 -1 51.812 119.85749999999999)">
                            <use xlink:href="#g1F90294F4741C45EFAF627C7603272BD" x="0" y="0" fill="#000000" fill-rule="nonzero"/>
                        </g>
                    </g>
                </g>
                <g class="typst-group">
                    <g>
                        <g class="typst-text" transform="matrix(1 0 0 -1 103.71522222222224 119.75099999999999)">
                            <use xlink:href="#g25BB32D7ACCE9FD835E1EB48ACE4FEF2" x="0" y="0" fill="#000000" fill-rule="nonzero"/>
                        </g>
                        <g class="typst-text" transform="matrix(1 0 0 -1 109.14922222222224 119.75099999999999)">
                            <use xlink:href="#gBE9884E2CDD0058F40A9D49B03E92379" x="0" y="0" fill="#000000" fill-rule="nonzero"/>
                        </g>
                        <g class="typst-text" transform="matrix(1 0 0 -1 117.11322222222223 119.75099999999999)">
                            <use xlink:href="#g6E8960DBA89EBA7DA42E3EA0EB30319C" x="3.927" y="0" fill="#000000" fill-rule="nonzero"/>
                            <use xlink:href="#gDAC5E2DCB52C210DE30153CB713FDB31" x="10.186" y="0" fill="#000000" fill-rule="nonzero"/>
                            <use xlink:href="#g97D91FAA70A2BE900EB4B933B3A13827" x="12.958" y="0" fill="#000000" fill-rule="nonzero"/>
                            <use xlink:href="#gDAC5E2DCB52C210DE30153CB713FDB31" x="20.119" y="0" fill="#000000" fill-rule="nonzero"/>
                            <use xlink:href="#gBC3E1427DBCA4F4F332FFBB848CE85A3" x="22.891" y="0" fill="#000000" fill-rule="nonzero"/>
                        </g>
                    </g>
                </g>
            </g>
        </g>
    </g>
    <defs id="glyph">
        <symbol id="g2B423CCE77CADA3AEEBCD71E4CC9E84E" overflow="visible">
            <path d="M 0 0m 6.396 1.339 v -1.339 h -5.499 v 1.339 h 2.002 v 5.993 h -2.1190002 v 1.1699996 q 0.27299994 0 0.507 0.032500267 q 0.23399997 0.032500267 0.44200003 0.08450031 q 0.24699998 0.07800007 0.44849992 0.18849945 q 0.20149994 0.110500336 0.34450006 0.26650047 q 0.19499993 0.20800018 0.286 0.4159994 q 0.09100008 0.20800018 0.09100008 0.42900085 h 1.4949999 v -8.580001 h 2.0019999 Z "/>
        </symbol>
        <symbol id="g1F90294F4741C45EFAF627C7603272BD" overflow="visible">
            <path d="M 0 0h 1.5730001 l 0.87099993 3.25 h 0.97500014 c 2.8730001 0 4.7190003 1.8590002 4.7190003 4.1990004 c 0 1.5469999 -1.1050005 2.4700003 -2.9640002 2.4700003 h -2.5220003 Z m 2.821 4.6670003 l 1.027 3.8349996 h 0.9489999 c 1.4170003 0 1.7290001 -0.7149997 1.7290001 -1.3649998 c 0 -1.1700001 -0.7669997 -2.4699998 -2.899 -2.4699998 Z "/>
        </symbol>
        <symbol id="gF1D632B2F65D4E52C4B01D17B01B5D80" overflow="visible">
            <path d="M 0 0m 1.04 1.69 h 8.1380005 l -1.7420001 -1.7420001 l 0.9359994 -0.93600005 l 4.6280003 4.6280003 l -4.6280003 4.641 l -0.9359994 -0.9359999 l 1.7420001 -1.7420001 l -8.1380005 -0.013000011 v -1.3000002 h 9.451 l 0.6499996 -0.64999986 l -0.6499996 -0.6500001 h -9.451 Z "/>
        </symbol>
        <symbol id="g4111B454E3DE943DB7281AAFE92A07DE" overflow="visible">
            <path d="M 0 0m 0.416 3.4060001 c 0 -1.9370002 1.0270001 -3.5490003 3.4580002 -3.5490003 c 1.053 0 2.0149999 0.32500002 2.834 0.845 l 0.7410002 -0.975 l 1.3389997 1.001 l -0.81899977 1.066 c 1.1830001 1.3130001 1.8589997 3.1069999 1.8589997 4.732 c 0 1.9370003 -1.0269995 3.5360003 -3.4579997 3.5360003 c -3.6920004 0 -5.9540005 -3.731 -5.9540005 -6.656 Z m 1.6250001 0.19499993 c 0 2.1190002 1.573 5.0440006 4.0690002 5.0440006 c 1.7550001 0 2.093 -1.3130002 2.093 -2.3270001 c 0 -1.079 -0.40299988 -2.3530002 -1.131 -3.3670003 l -1.105 1.4430001 l -1.2869997 -1.0139999 l 1.1959996 -1.5860001 c -0.50699997 -0.32500005 -1.092 -0.52 -1.7419996 -0.52 c -1.3910003 0 -2.0930002 0.923 -2.0930002 2.3270001 Z "/>
        </symbol>
        <symbol id="g5547AE746F4F598D585CCB523E0B2696" overflow="visible">
            <path d="M 0 0m 6.643 1.339 v -1.339 h -5.863 v 1.599 q 1.079 1.0270002 1.612 1.5535002 q 0.533 0.5265 0.9100001 0.9425001 q 0.8839998 0.9619999 1.2804999 1.69 q 0.3965001 0.7279997 0.3965001 1.3519998 q 0 0.7670002 -0.4419999 1.1829996 q -0.4419999 0.41600037 -1.2350001 0.41600037 q -0.61100006 0 -1.2609999 -0.26000023 q -0.6500001 -0.25999928 -1.118 -0.67599964 v 1.4689999 q 0.53300005 0.37699986 1.2024999 0.5915003 q 0.6695001 0.21449947 1.3325002 0.21449947 q 1.4559999 0 2.249 -0.76049995 q 0.79299974 -0.76049995 0.79299974 -2.1774998 q 0 -1.105 -0.8125 -2.3140001 q -0.8125 -1.2089999 -3.1655 -3.445 l 0.039000034 -0.039000034 h 4.082 Z "/>
        </symbol>
        <symbol id="g882F1245D7675D403DC4F1A7118DC1B4" overflow="visible">
            <path d="M 0 0m 1.3000001 2.8860002 h 5.382 v -2.756 h 1.4300003 v 4.069 h -6.8120003 Z "/>
        </symbol>
        <symbol id="g90F5FA72EB5EBAE9521706E5BB56BAAB" overflow="visible">
            <path d="M 0 0m 3.1720002 -0.143 q -0.31200004 0 -0.60450006 0.032500006 q -0.29250002 0.0325 -0.5655 0.0845 q -0.36400008 0.078 -0.6370001 0.18200001 q -0.273 0.10399999 -0.45499998 0.23400001 v 1.482 q 0.195 -0.1559999 0.468 -0.2794999 q 0.273 -0.12350011 0.6240001 -0.22750008 q 0.286 -0.07799995 0.59150004 -0.12349999 q 0.30550003 -0.04550004 0.6174998 -0.04550004 q 0.8970003 0 1.4560003 0.45500004 q 0.559 0.45499992 0.559 1.1960001 q 0 0.806 -0.6045003 1.2024999 q -0.6044998 0.3965001 -1.8785 0.3965001 h -0.962 v 1.3130002 h 0.962 q 1.04 0 1.69 0.42249966 q 0.6500001 0.42250013 0.6500001 1.1895003 q 0 0.6630001 -0.44850016 1.0074997 q -0.44850016 0.34450054 -1.2935 0.34450054 q -0.29900002 0 -0.59150004 -0.03900051 q -0.29250002 -0.038999557 -0.59150004 -0.13000011 q -0.32499993 -0.0909996 -0.5914999 -0.20800018 q -0.2665 -0.116999626 -0.47450006 -0.25999928 v 1.4429998 q 0.42900002 0.24699974 1.0985 0.39000034 q 0.6695001 0.14299965 1.3455 0.14299965 q 1.417 0 2.2425 -0.67599964 q 0.8255 -0.6760006 0.8255 -1.8330007 q 0 -0.81899977 -0.3835001 -1.4365001 q -0.3835001 -0.6174998 -1.0854998 -0.9164996 v -0.026000023 q 0.7669997 -0.24700022 1.1894999 -0.8580003 q 0.42250013 -0.6109998 0.42250013 -1.5079999 q 0 -1.352 -0.9879999 -2.1515 q -0.9880004 -0.79950005 -2.5870001 -0.79950005 Z "/>
        </symbol>
        <symbol id="g63E37FF68EBD104F5720C136CD539C2D" overflow="visible">
            <path d="M 0 0m 2.321 3.718 v -3.718 h -1.3310001 v 8.393 h 1.3310001 v -3.4759998 h 3.7399998 v 3.4759998 h 1.3310003 v -8.393 h -1.3310003 v 3.718 h -3.7399998 Z "/>
        </symbol>
        <symbol id="gEBC2302B8473AB43125875C67C7A7242" overflow="visible">
            <path d="M 0 0m 4.914 0 v 2.3270001 h -4.264 v 1.2479999 l 3.9910002 6.344001 h 1.7679996 v -6.344001 h 1.144 v -1.2479999 h -1.144 v -2.3270001 h -1.4949999 Z m -2.678 3.575 h 2.678 v 4.6540003 h -0.039000034 q -0.052000046 -0.14299965 -0.14300013 -0.3249998 q -0.0909996 -0.18200016 -0.68899965 -1.1830001 l -1.8460002 -3.107 l 0.039000034 -0.039000034 Z "/>
        </symbol>
        <symbol id="g8C323423D8C0C3A99512B145063D8EFF" overflow="visible">
            <path d="M 0 0m 5.533 1.199 v -1.199 h -4.543 v 8.393 h 4.4110003 v -1.1989999 h -3.08 v -2.277 h 2.915 v -1.1989999 h -2.915 v -2.519 h 3.212 Z "/>
        </symbol>
        <symbol id="g7C65E43B8D770AF3084944E7D6AB087E" overflow="visible">
            <path d="M 0 0m 0.88 1.43 h 6.8859997 l -1.474 -1.474 l 0.7920003 -0.79199994 l 3.916 3.916 l -3.916 3.927 l -0.7920003 -0.7919998 l 1.474 -1.474 l -6.8859997 -0.011000156 v -1.1000001 h 7.9969997 l 0.5500002 -0.54999995 l -0.5500002 -0.54999995 h -7.9969997 Z "/>
        </symbol>
        <symbol id="g31E5BA2D5AA159486808759D274DA451" overflow="visible">
            <path d="M 0 0m 5.412 1.133 v -1.133 h -4.6530004 v 1.133 h 1.694 v 5.071 h -1.7930001 v 0.9899998 q 0.231 0 0.42900002 0.027500153 q 0.19799995 0.027500153 0.37399995 0.071499825 q 0.20899999 0.065999985 0.37950003 0.15950012 q 0.17050004 0.09350014 0.2915001 0.2255001 q 0.16499996 0.17600012 0.24199986 0.35199976 q 0.07700014 0.1760006 0.07700014 0.36299992 h 1.2649999 v -7.2599998 h 1.6940002 Z "/>
        </symbol>
        <symbol id="gDAC5E2DCB52C210DE30153CB713FDB31" overflow="visible">
            <path d="M 0 0m 2.497 0.946 l -1.562 -2.761 l -0.825 0.40699995 l 1.089 2.8379998 l 1.298 -0.48399997 Z "/>
        </symbol>
        <symbol id="g6E8960DBA89EBA7DA42E3EA0EB30319C" overflow="visible">
            <path d="M 0 0m 2.684 -0.121 q -0.26399994 0 -0.5115001 0.027499996 q -0.24749994 0.027500004 -0.4784999 0.0715 q -0.30799997 0.066 -0.53900003 0.154 q -0.23099995 0.088 -0.385 0.19799998 v 1.254 q 0.16500002 -0.13199997 0.39600003 -0.23650002 q 0.23099995 -0.104499936 0.528 -0.1925 q 0.24199998 -0.065999985 0.50049996 -0.104499936 q 0.2585001 -0.03850007 0.52250004 -0.03850007 q 0.75900006 0 1.2319999 0.385 q 0.47300005 0.385 0.47300005 1.012 q 0 0.68200016 -0.5114999 1.0175002 q -0.5115001 0.3355 -1.5895 0.3355 h -0.8140001 v 1.1110001 h 0.8140001 q 0.8799999 0 1.4299998 0.3574996 q 0.5500002 0.35750008 0.5500002 1.0065002 q 0 0.5609999 -0.37950015 0.85249996 q -0.3794999 0.2915001 -1.0945001 0.2915001 q -0.25300002 0 -0.50049996 -0.032999992 q -0.24749994 -0.032999992 -0.50049996 -0.11000013 q -0.27499998 -0.07700014 -0.50049996 -0.17600012 q -0.22549999 -0.09899998 -0.4015 -0.21999979 v 1.2209997 q 0.36299992 0.20900059 0.9295 0.32999992 q 0.56650007 0.12100029 1.1385001 0.12100029 q 1.1989999 0 1.8975 -0.572 q 0.6984997 -0.572 0.6984997 -1.5510001 q 0 -0.69299984 -0.32450008 -1.2154999 q -0.3244996 -0.52250004 -0.91849995 -0.7754998 v -0.022000313 q 0.64900017 -0.20899963 1.0065002 -0.72599983 q 0.35750008 -0.51699996 0.35750008 -1.276 q 0 -1.1439999 -0.83599997 -1.8204999 q -0.83599997 -0.67649996 -2.1890001 -0.67649996 Z "/>
        </symbol>
        <symbol id="g86EA722F1BDD396568727E75E2996077" overflow="visible">
            <path d="M 0 0m 3.354 -0.143 q -0.32500005 0 -0.6240001 0.026000008 q -0.29900002 0.025999993 -0.572 0.091 q -0.39 0.078 -0.663 0.18200001 q -0.273 0.10399999 -0.45500004 0.23400001 v 1.4690001 q 0.19500005 -0.15600002 0.48100007 -0.2795 q 0.286 -0.12349999 0.65 -0.22750008 q 0.29900002 -0.07799995 0.60450006 -0.116999984 q 0.30550003 -0.039000034 0.6305001 -0.039000034 q 0.90999985 0 1.4429998 0.48750007 q 0.533 0.48749995 0.533 1.3065 q 0 0.70200014 -0.39649963 1.1245 q -0.3965001 0.42250013 -1.1895003 0.56550026 q -0.33799982 0.06499958 -0.76049995 0.07799959 q -0.4224999 0.013000011 -1.8005 -0.07799959 v 5.252 h 5.148 v -1.3389997 h -3.6529999 v -2.6000004 q 2.0019999 0.16900015 3.0875 -0.59800005 q 1.0855002 -0.7669997 1.0855002 -2.327 q 0 -1.404 -0.96850014 -2.3075001 q -0.96850014 -0.9035 -2.5805001 -0.9035 Z "/>
        </symbol>
        <symbol id="g25BB32D7ACCE9FD835E1EB48ACE4FEF2" overflow="visible">
            <path d="M 0 0m 4.664 1.199 v -1.199 h -3.894 v 1.199 h 1.287 v 5.995 h -1.287 v 1.1989999 h 3.894 v -1.1989999 h -1.287 v -5.995 h 1.287 Z "/>
        </symbol>
        <symbol id="g535A670AE28F841DC8B7E1673460922C" overflow="visible">
            <path d="M 0 0m 3.685 7.194 v -7.194 h -1.3199999 v 7.194 h -2.255 v 1.1989999 h 5.83 v -1.1989999 h -2.255 Z "/>
        </symbol>
        <symbol id="g65ED4F00B31BDC51AA0C660AFAA748AB" overflow="visible">
            <path d="M 0 0m 5.621 1.133 v -1.133 h -4.961 v 1.353 q 0.913 0.86899984 1.364 1.3145 q 0.45099998 0.4454999 0.77 0.7974999 q 0.74800014 0.8139999 1.0835001 1.4300001 q 0.33549976 0.6160002 0.33549976 1.144 q 0 0.6489997 -0.37399983 1.0009999 q -0.37400007 0.35200024 -1.0450001 0.35200024 q -0.51699996 0 -1.0669999 -0.22000027 q -0.54999995 -0.21999979 -0.946 -0.572 v 1.243 q 0.45099998 0.31899977 1.0174999 0.5005002 q 0.56650007 0.18149948 1.1274999 0.18149948 q 1.2320001 0 1.9030001 -0.64349985 q 0.671 -0.64349985 0.671 -1.8424997 q 0 -0.93499994 -0.6875 -1.9580002 q -0.6875 -1.0229998 -2.6785 -2.915 l 0.032999992 -0.032999992 h 3.4539998 Z "/>
        </symbol>
        <symbol id="g6BAA4BB3C41B36A10C2DB7913EA69BB6" overflow="visible">
            <path d="M 0 0m 7.514 3.1590002 q 0 -1.4300001 -0.9034996 -2.3660002 q -0.9035001 -0.93600005 -2.3465004 -0.93600005 q -1.6379998 0 -2.4959998 1.2285 q -0.858 1.2285001 -0.858 3.5425003 q 0 2.613 1.0465 4.0234995 q 1.0465 1.4105005 3.0095 1.4105005 q 0.49399996 0 1.0205002 -0.10400009 q 0.52649975 -0.10400009 1.0464997 -0.2989998 v -1.4820004 q -0.58500004 0.27299976 -1.079 0.40950012 q -0.49399996 0.13650036 -0.9359999 0.13650036 q -1.2740002 0 -1.9435 -0.80600023 q -0.6695001 -0.80600023 -0.6695001 -2.3400002 q 0.45500016 0.3249998 0.97500014 0.4875002 q 0.52 0.1624999 1.066 0.1624999 q 1.4169998 0 2.2424998 -0.83200026 q 0.8255 -0.8319998 0.8255 -2.2359998 Z m -1.5209999 -0.1170001 q 0 0.9360001 -0.4874997 1.4364998 q -0.4875002 0.5005002 -1.3845 0.5005002 q -0.5200002 0 -0.96850014 -0.1624999 q -0.44850016 -0.1624999 -0.7475002 -0.44850016 q 0 -1.599 0.47450018 -2.418 q 0.47449994 -0.819 1.4104998 -0.819 q 0.80600023 0 1.2545004 0.5135 q 0.44849968 0.5135 0.44849968 1.3975 Z "/>
        </symbol>
        <symbol id="gBE9884E2CDD0058F40A9D49B03E92379" overflow="visible">
            <path d="M 0 0m 1.1 2.442 h 4.554 v -2.332 h 1.21 v 3.443 h -5.764 Z "/>
        </symbol>
        <symbol id="g97D91FAA70A2BE900EB4B933B3A13827" overflow="visible">
            <path d="M 0 0m 4.158 0 v 1.969 h -3.608 v 1.0560001 l 3.377 5.3679996 h 1.4959998 v -5.3679996 h 0.96799994 v -1.0560001 h -0.96799994 v -1.969 h -1.2649999 Z m -2.266 3.025 h 2.266 v 3.9379997 h -0.032999992 q -0.04400015 -0.12099981 -0.12099981 -0.2750001 q -0.07700014 -0.1539998 -0.5830002 -1.0009999 l -1.562 -2.6289997 l 0.032999992 -0.032999992 Z "/>
        </symbol>
        <symbol id="gBC3E1427DBCA4F4F332FFBB848CE85A3" overflow="visible">
            <path d="M 0 0m 2.838 -0.121 q -0.2750001 0 -0.5280001 0.022 q -0.25300002 0.022 -0.48399997 0.077 q -0.32999992 0.066 -0.561 0.154 q -0.23099995 0.088 -0.385 0.19799998 v 1.243 q 0.16499996 -0.13199997 0.40699995 -0.2364999 q 0.2420001 -0.104500055 0.5500001 -0.1925 q 0.2529999 -0.066000104 0.5115 -0.0990001 q 0.25849986 -0.032999992 0.53349996 -0.032999992 q 0.77 0 1.2210002 0.41250002 q 0.45099974 0.41250002 0.45099974 1.1055 q 0 0.5940001 -0.33549976 0.95149994 q -0.33550024 0.35750008 -1.0065002 0.47850013 q -0.286 0.05499983 -0.64349985 0.065999985 q -0.35750008 0.011000156 -1.5235001 -0.065999985 v 4.4440002 h 4.356 v -1.1330004 h -3.091 v -2.1999998 q 1.6940002 0.14299965 2.6125002 -0.50600004 q 0.91849995 -0.64900017 0.91849995 -1.9690001 q 0 -1.188 -0.81949997 -1.9525 q -0.81949997 -0.76449996 -2.1835 -0.76449996 Z "/>
        </symbol>
    </defs>
</svg>
